HIERARCHY
ROOT hip
{
	OFFSET 0.000000 0.000000 0.000000 
	CHANNELS 6 Xposition Yposition Zposition Xrotation Zrotation Yrotation
	JOINT abdomen
	{
		OFFSET 0.000000 3.402643 0.000000 
		CHANNELS 3 Xrotation Zrotation Yrotation
		JOINT chest
		{
			OFFSET 0.000000 8.438565 -0.680529 
			CHANNELS 3 Xrotation Zrotation Yrotation
			JOINT neck
			{
				OFFSET 0.000000 10.207942 -0.272212 
				CHANNELS 3 Xrotation Zrotation Yrotation
				JOINT head
				{
					OFFSET 0.000000 3.130431 0.000000 
					CHANNELS 3 Xrotation Zrotation Yrotation
					End Site
					{
						OFFSET 0.000000 3.130435 0.000000 
					}
				}
			}
			JOINT lCollar
			{
				OFFSET 3.470700 6.669187 -0.816635 
				CHANNELS 3 Yrotation Zrotation Xrotation
				JOINT lShldr
				{
					OFFSET 3.198488 0.000000 0.000000 
					CHANNELS 3 Zrotation Yrotation Xrotation
					JOINT lForeArm
					{
						OFFSET 10.139888 0.000000 0.000000 
						CHANNELS 3 Yrotation Zrotation Xrotation
						JOINT lHand
						{
							OFFSET 8.370511 0.000000 0.000000 
							CHANNELS 3 Zrotation Yrotation Xrotation
							End Site
							{
								OFFSET 4.083176 0.000000 0.000000 
							}
						}
					}
				}
			}
			JOINT rCollar
			{
				OFFSET -3.470700 6.669187 -0.816635 
				CHANNELS 3 Yrotation Zrotation Xrotation
				JOINT rShldr
				{
					OFFSET -3.198488 0.000000 0.000000 
					CHANNELS 3 Zrotation Yrotation Xrotation
					JOINT rForeArm
					{
						OFFSET -10.139888 0.000000 0.000000 
						CHANNELS 3 Yrotation Zrotation Xrotation
						JOINT rHand
						{
							OFFSET -8.370511 0.000000 0.000000 
							CHANNELS 3 Zrotation Yrotation Xrotation
							End Site
							{
								OFFSET -4.083176 0.000000 0.000000 
							}
						}
					}
				}
			}
		}
	}
	JOINT lThigh
	{
		OFFSET 5.308129 -1.633274 1.361059 
		CHANNELS 3 Xrotation Zrotation Yrotation
		JOINT lShin
		{
			OFFSET -2.041588 -20.007561 0.000000 
			CHANNELS 3 Xrotation Zrotation Yrotation
			JOINT lFoot
			{
				OFFSET 0.000000 -19.190928 -1.224953 
				CHANNELS 3 Xrotation Yrotation Zrotation
				End Site
				{
					OFFSET 0.000000 -2.449906 4.627600 
				}
			}
		}
	}
	JOINT rThigh
	{
		OFFSET -5.308129 -1.633274 1.361059 
		CHANNELS 3 Xrotation Zrotation Yrotation
		JOINT rShin
		{
			OFFSET 2.041588 -20.007561 0.000000 
			CHANNELS 3 Xrotation Zrotation Yrotation
			JOINT rFoot
			{
				OFFSET 0.000000 -19.190928 -1.224953 
				CHANNELS 3 Xrotation Yrotation Zrotation
				End Site
				{
					OFFSET 0.000000 -2.449906 4.627600 
				}
			}
		}
	}
}
MOTION
Frames: 11
Frame Time: 0.033333
4.881702 49.306618 -16.143520 6.074218 0.351563 3.427731 10.370376 -8.712459 -6.345483 -7.167968 8.505860 5.245585 -9.682161 -1.043722 -2.133658 22.519531 -1.425781 -2.226806 2.000000 -2.000000 0.000000 -0.888672 -22.714842 -30.677597 -8.366804 -0.681024 2.450407 4.877097 -10.443935 31.980930 -2.000000 2.000000 0.000000 -4.570313 19.140627 -37.216801 -3.126584 0.839341 2.420704 1.484557 8.612948 34.227112 -8.236355 5.882950 8.920691 11.686866 -4.123230 -2.925271 -8.611456 -0.639441 -1.739796 -10.683150 -14.354280 -12.340229 12.872866 4.363806 10.280087 -6.659298 0.183181 5.068888 
5.104823 49.272388 -16.430569 6.494141 0.058594 4.267577 10.370376 -8.712459 -6.345483 -6.718750 9.013673 5.206608 -9.646945 -1.453288 -3.079404 23.632814 -1.738281 -3.203421 2.000000 -2.000000 0.000000 -1.298828 -27.802734 -27.167969 -18.501904 -0.461868 2.515415 0.352684 -12.023978 35.638474 -2.000000 2.000000 0.000000 -4.990234 20.253904 -31.842321 8.044963 0.701695 2.431974 3.099910 9.144722 28.785467 -9.502150 5.791281 8.295612 12.347372 -4.139557 -3.453205 -8.543929 -0.828956 -1.300844 -11.422890 -14.447291 -11.839460 12.948915 4.267491 8.572844 -6.363798 0.629268 5.815650 
5.194799 49.270123 -16.753607 6.376953 0.244141 4.218789 10.370376 -8.712459 -6.345483 -5.537109 8.359375 5.479936 -9.601924 -1.209784 -2.513498 23.564453 -1.640625 -2.607715 2.000000 -2.000000 0.000000 -1.074219 -32.138756 -19.985704 -32.073135 -0.297669 2.642430 -3.302343 -12.591166 33.290436 -2.000000 2.000000 0.000000 -2.617188 22.421875 -27.916195 24.721506 0.478425 2.565239 3.714768 8.087290 25.061642 -9.558116 5.466782 8.351380 11.927487 -4.119979 -3.556740 -7.936637 -0.788764 -1.135678 -12.105594 -14.631983 -10.838437 13.642161 4.208897 7.460289 -6.257341 0.241061 5.545368 
5.311958 49.228596 -17.204123 7.314454 -0.253906 4.746050 10.370376 -8.712459 -6.345483 -5.136719 8.769531 5.478515 -9.591096 -1.253906 -2.674728 22.617188 -0.849609 -2.822411 2.000000 -2.000000 0.000000 -1.513672 -39.667969 -14.371469 -43.778690 -0.171277 2.791320 -6.962089 -13.203334 31.896345 -2.000000 2.000000 0.000000 -3.632812 23.613281 -22.984369 42.489803 0.308336 2.789789 1.263901 6.757997 19.046909 -11.750544 5.678810 7.662799 13.088969 -4.112795 -3.330502 -7.931648 -0.856920 -0.888217 -14.039811 -14.233748 -9.953788 14.442534 4.091481 5.589660 -6.090438 0.338806 5.084163 
5.380040 49.257286 -17.553085 7.597657 -0.146484 1.445288 10.370376 -8.712459 -6.345483 -4.189453 8.359375 5.645951 -9.557981 -0.727622 -1.480190 22.216797 -2.070312 -1.377306 2.000000 -2.000000 0.000000 -4.833984 -43.378906 -6.406250 -55.630093 -0.052857 2.969987 -7.530149 -10.434829 31.674463 -2.000000 2.000000 0.000000 -2.949219 34.335938 -23.837891 52.486614 0.172778 2.928317 0.324930 9.386619 21.540901 -11.608345 5.954958 8.862641 12.192798 -4.025196 -1.648989 -7.363548 -0.836366 -1.193958 -16.702663 -12.825979 -7.217873 15.941660 3.855968 1.321015 -5.377078 0.490797 2.966936 
5.307806 49.248734 -17.964088 8.261718 -1.035156 1.025391 10.370376 -8.712459 -6.345483 -3.603515 8.857422 5.655801 -9.549272 -0.525825 -1.125496 22.480469 -1.972656 -0.967133 2.000000 -2.000000 0.000000 -4.863282 -52.568363 -1.806641 -61.243404 -0.057297 3.058286 -8.182320 -13.671319 27.995035 -2.000000 2.000000 0.000000 -2.929688 43.251953 -23.652342 61.692394 0.193176 3.076266 -3.036321 6.933991 14.944891 -13.474688 7.010375 8.807794 13.623705 -3.975299 -1.272403 -7.624226 -0.810362 -1.195703 -19.201595 -10.561339 -6.800655 18.308100 3.720296 -0.171100 -6.016011 0.668839 -1.676850 
5.234063 49.360477 -18.280458 8.945313 -1.757813 -0.615534 10.370376 -8.712459 -6.345483 -2.841795 9.335938 5.714474 -9.520714 -0.347715 -0.796851 21.708984 -2.626953 -0.518026 2.000000 -2.000000 0.000000 -8.388673 -59.130859 5.878906 -68.750206 0.019199 3.190589 -6.591936 -12.649579 29.912704 -2.000000 2.000000 0.000000 -4.033203 51.933594 -23.000126 73.367439 0.131450 3.287747 -2.834411 4.131666 15.288173 -14.432298 8.124051 9.216008 13.798502 -3.926504 -0.704987 -7.421388 -0.754893 -1.403684 -21.609785 -8.348914 -6.043621 21.480457 3.954632 6.828529 -4.919118 1.109417 -4.248939 
4.993073 49.452599 -18.604380 9.746094 -2.939453 -0.996094 10.370376 -8.712459 -6.345483 -1.777343 10.166015 5.802505 -9.482069 -0.178367 -0.526142 21.142578 -3.349609 -0.117188 2.000000 -2.000000 0.000000 -14.121095 -68.349609 12.978517 -71.151489 0.041646 3.238128 -7.975810 -13.790403 31.137592 -2.000000 2.000000 0.000000 -6.806641 61.699223 -22.617188 79.595818 0.067055 3.381659 -6.054000 5.711856 18.946245 -16.462734 9.588158 8.127718 15.338084 -3.828048 0.615395 -7.757298 -0.892761 -1.824627 -23.914354 -6.298407 -5.533906 25.325720 4.238758 16.131132 -6.866331 0.400640 3.460932 
4.671922 49.473614 -18.971842 10.693696 -4.443497 -0.586650 10.370376 -8.712459 -6.345483 -0.615234 11.220705 5.880806 -9.433534 0.016139 -0.219728 18.994139 -2.363281 0.175781 2.000000 -2.000000 0.000000 -30.468750 -76.904297 28.545176 -72.313393 0.042237 3.247873 -7.729941 -12.874590 31.102478 -2.000000 2.000000 0.000000 -10.029296 67.597656 -21.514410 88.722916 0.105149 3.560031 -7.125583 4.602097 16.119270 -19.564335 11.148188 5.422378 17.970964 -3.651434 2.697195 -8.472882 -1.239676 -1.824682 -26.362364 -4.061568 -4.469776 28.385128 4.395175 21.204636 -6.028875 -0.267536 11.184668 
4.246195 49.203930 -19.509693 11.660155 -5.937500 0.537109 10.370376 -8.712459 -6.345483 1.074220 12.353516 6.066543 -9.365002 -0.004884 -0.423963 15.996095 -2.363281 0.048426 2.000000 -2.000000 0.000000 -54.677734 -81.777344 52.070415 -75.856621 0.095701 3.322875 -6.807291 -12.413523 33.294228 -2.000000 2.000000 0.000000 -16.328125 74.287109 -25.146486 91.963852 0.130841 3.620275 -8.823085 3.759721 14.486275 -24.742292 12.009834 1.922994 23.371601 -3.372380 5.794856 -10.056084 -1.150374 -0.221034 -29.862759 -1.894858 -3.470337 33.244850 4.169731 19.609961 -2.839299 -0.060000 11.757663 
3.982302 48.416656 -20.146711 12.480469 -7.275390 1.728516 10.370376 -8.712459 -6.345483 2.998047 14.013673 6.262131 -9.284647 -0.335874 -1.371488 11.503906 -3.066406 -0.693882 2.000000 -2.000000 0.000000 79.628914 -96.923828 -84.609306 -74.929520 0.074433 3.294824 -6.885412 -15.821221 32.718193 -2.000000 2.000000 0.000000 -30.439451 77.373047 -36.074455 94.687424 0.147376 3.670209 -8.345654 4.036918 13.713569 -31.861507 10.945871 -1.446406 32.561134 -2.626193 12.772449 -13.272558 -1.516162 3.792394 -33.064953 -0.303230 -3.330748 37.631630 3.934579 18.249294 -1.650047 0.107720 4.631562 
